normalP052_grf.mot
version=1
nRows=27
nColumns=19
inDegrees=yes
endheader
time	1_ground_force_vx	1_ground_force_vy	1_ground_force_vz	1_ground_force_px	1_ground_force_py	1_ground_force_pz	1_ground_torque_x	1_ground_torque_y	1_ground_torque_z	2_ground_force_vx	2_ground_force_vy	2_ground_force_vz	2_ground_force_px	2_ground_force_py	2_ground_force_pz	2_ground_torque_x	2_ground_torque_y	2_ground_torque_z
            1.910000	          174.271121	          674.255822	            3.424859	            0.343661	            0.002317	           -0.211796	            0.836290	            3.235611	            0.016435	            3.493253	          322.393815	          -28.677952	            0.881438	            0.000647	           -0.281915	           -0.003647	           -0.336563	            0.029938
            1.911000	          174.359829	          664.045646	            4.556258	            0.343744	            0.002316	           -0.211627	            0.830463	            3.162799	            0.021701	           -3.263136	          311.143023	          -28.485485	            0.882989	            0.000639	           -0.281324	            0.003579	           -0.341284	            0.031245
            1.912000	          174.357186	          655.431969	            5.668406	            0.343599	            0.002317	           -0.211658	            0.817279	            3.072262	            0.026570	           -8.917208	          312.279329	          -27.555648	            0.884671	            0.000630	           -0.280767	            0.010064	           -0.352426	            0.031098
            1.913000	          174.343232	          647.695391	            6.797813	            0.343426	            0.002318	           -0.211814	            0.807311	            2.999207	            0.031478	          -14.556316	          315.177299	          -26.751194	            0.885799	            0.000626	           -0.280799	            0.016489	           -0.357026	            0.030303
            1.914000	          174.128733	          639.641070	            7.934173	            0.343140	            0.002320	           -0.212001	            0.800916	            2.942069	            0.036494	          -20.570545	          314.560799	          -26.379773	            0.887081	            0.000622	           -0.281268	            0.022600	           -0.345599	            0.028983
            1.915000	          173.835504	          629.513325	            8.905015	            0.343116	            0.002320	           -0.212122	            0.795661	            2.881341	            0.040759	          -26.748949	          316.823368	          -25.768497	            0.888397	            0.000618	           -0.281982	            0.031657	           -0.374954	            0.030497
            1.916000	          173.509367	          618.826596	            9.889947	            0.343163	            0.002320	           -0.212045	            0.777513	            2.773024	            0.044318	          -33.303256	          330.118342	          -25.215466	            0.889521	            0.000611	           -0.281247	            0.037020	           -0.366963	            0.028030
            1.917000	          172.994851	          608.700709	           10.761493	            0.343005	            0.002321	           -0.212079	            0.760922	            2.677385	            0.047335	          -39.863347	          347.572665	          -24.703420	            0.890751	            0.000606	           -0.281190	            0.041197	           -0.359202	            0.025530
            1.918000	          172.461732	          599.531763	           11.535715	            0.342983	            0.002321	           -0.212118	            0.744497	            2.588109	            0.049798	          -46.756138	          360.630998	          -23.936212	            0.891964	            0.000602	           -0.281537	            0.049178	           -0.379313	            0.025176
            1.919000	          171.860939	          589.007016	           12.490344	            0.342880	            0.002322	           -0.212218	            0.725267	            2.485658	            0.052710	          -53.517821	          366.492624	          -23.052876	            0.893163	            0.000599	           -0.281996	            0.058282	           -0.399121	            0.025105
            1.920000	          171.221504	          578.401892	           13.383787	            0.342813	            0.002323	           -0.212484	            0.727092	            2.456183	            0.056834	          -60.175535	          375.232787	          -22.206761	            0.893980	            0.000596	           -0.282390	            0.064353	           -0.401280	            0.023748
            1.921000	          170.363521	          566.842176	           14.144980	            0.342670	            0.002323	           -0.212435	            0.710339	            2.363474	            0.058978	          -66.983650	          388.369378	          -21.339595	            0.894739	            0.000593	           -0.282203	            0.067102	           -0.389053	            0.021377
            1.922000	          169.489407	          555.042082	           14.982176	            0.342875	            0.002323	           -0.212517	            0.694738	            2.275121	            0.061412	          -73.558390	          398.626601	          -20.504702	            0.895883	            0.000588	           -0.282236	            0.074987	           -0.406367	            0.020903
            1.923000	          168.351113	          545.558175	           15.786684	            0.342494	            0.002325	           -0.212669	            0.677671	            2.196058	            0.063547	          -79.424308	          402.325260	          -19.759300	            0.897018	            0.000584	           -0.282444	            0.080226	           -0.406387	            0.019959
            1.924000	          167.038035	          534.717621	           16.680001	            0.342395	            0.002326	           -0.212812	            0.668795	            2.140927	            0.066784	          -84.806363	          402.504332	          -18.970946	            0.897852	            0.000581	           -0.282672	            0.084451	           -0.400816	            0.018891
            1.925000	          165.470436	          523.401194	           17.350270	            0.342255	            0.002326	           -0.212771	            0.641632	            2.029553	            0.067278	          -89.579619	          403.402902	          -18.311426	            0.898434	            0.000581	           -0.283355	            0.100529	           -0.452712	            0.020550
            1.926000	          163.823300	          511.445203	           18.111020	            0.342398	            0.002326	           -0.213028	            0.638537	            1.993470	            0.070592	          -93.471241	          407.971115	          -17.702895	            0.899503	            0.000575	           -0.282899	            0.091253	           -0.398288	            0.017283
            1.927000	          162.093396	          499.729523	           18.964200	            0.342240	            0.002327	           -0.213175	            0.621239	            1.915262	            0.072682	          -96.595362	          410.859176	          -17.061684	            0.900265	            0.000572	           -0.282923	            0.091659	           -0.389861	            0.016190
            1.928000	          160.199169	          488.892576	           19.612878	            0.342300	            0.002327	           -0.213094	            0.600551	            1.832749	            0.073524	          -98.703971	          410.866022	          -16.468324	            0.900472	            0.000571	           -0.283014	            0.088058	           -0.366552	            0.014692
            1.929000	          158.057370	          477.418392	           20.183626	            0.342242	            0.002328	           -0.213356	            0.591577	            1.786881	            0.075543	          -99.927712	          409.750241	          -15.978720	            0.901365	            0.000569	           -0.283486	            0.097963	           -0.401693	            0.015665
            1.930000	          155.700725	          464.191764	           20.635599	            0.342071	            0.002329	           -0.213435	            0.576905	            1.719931	            0.076459	          -99.818696	          411.986996	          -15.648879	            0.901500	            0.000568	           -0.283417	            0.088761	           -0.366350	            0.013915
            1.931000	          153.495634	          452.240283	           21.052263	            0.342144	            0.002328	           -0.213416	            0.554424	            1.633486	            0.076040	          -98.616464	          415.259834	          -15.254858	            0.901692	            0.000569	           -0.283773	            0.087816	           -0.369781	            0.013584
            1.932000	          151.001161	          440.528885	           21.484890	            0.342340	            0.002327	           -0.213387	            0.527726	            1.539582	            0.075086	          -96.266750	          417.886555	          -14.855849	            0.901880	            0.000568	           -0.283649	            0.071575	           -0.310700	            0.011045
            1.933000	          148.265434	          428.020761	           21.647874	            0.342328	            0.002328	           -0.213765	            0.531800	            1.535229	            0.077647	          -92.717667	          419.392289	          -14.360529	            0.901453	            0.000571	           -0.284225	            0.066594	           -0.301228	            0.010314
            1.934000	          145.681677	          415.274698	           21.787284	            0.342296	            0.002328	           -0.213759	            0.511897	            1.459194	            0.076556	          -88.413079	          421.852153	          -13.770576	            0.901339	            0.000572	           -0.284412	            0.057583	           -0.274753	            0.008969
            1.935000	          143.098254	          402.606805	           21.911645	            0.342508	            0.002327	           -0.213779	            0.501325	            1.410478	            0.076764	          -83.691436	          426.868820	          -13.195591	            0.901067	            0.000573	           -0.284497	            0.040520	           -0.206673	            0.006389
            1.936000	          140.109238	          389.863866	           21.859895	            0.342482	            0.002327	           -0.213700	            0.476274	            1.325267	            0.074308	          -78.919832	          432.844246	          -12.641083	            0.900816	            0.000574	           -0.284422	            0.025859	           -0.141824	            0.004142
